<svg xmlns="http://www.w3.org/2000/svg" width="32" height="32" viewBox="0 0 32 32">
    <g fill="none" fill-rule="evenodd">
        <path d="M0 0h32v32H0z" opacity=".2"/>
        <path fill="#999" d="M18.975 2.211l3.535 3.536a3 3 0 0 0 4.243 4.243l3.536 3.535L14.025 29.79l-3.535-3.536a3 3 0 0 0-4.243-4.243l-3.536-3.535L18.975 2.21zm1.414 16.971l-.707.707 1.414 1.414.707-.707-1.414-1.414zm-2.828-2.828l-.707.707 1.414 1.414.707-.707-1.414-1.414zm-2.829-2.829l-.707.707 1.414 1.414.707-.707-1.414-1.414zm-2.828-2.828l-.707.707 1.414 1.414.707-.707-1.414-1.414z"/>
    </g>
</svg>
