<svg xmlns="http://www.w3.org/2000/svg" xmlns:xlink="http://www.w3.org/1999/xlink" width="296" height="168" viewBox="0 0 296 168">
    <defs>
        <rect id="a" width="234" height="128" rx="4"/>
        <filter id="b" width="134.2%" height="162.5%" x="-13.7%" y="-15.6%" filterUnits="objectBoundingBox">
            <feOffset dx="8" dy="20" in="SourceAlpha" result="shadowOffsetOuter1"/>
            <feGaussianBlur in="shadowOffsetOuter1" result="shadowBlurOuter1" stdDeviation="10"/>
            <feColorMatrix in="shadowBlurOuter1" values="0 0 0 0 0 0 0 0 0 0 0 0 0 0 0 0 0 0 0.1 0"/>
        </filter>
    </defs>
    <g fill="none" fill-rule="evenodd">
        <path d="M0 0h296v168H0z" opacity=".2"/>
        <g transform="translate(31)">
            <mask id="c" fill="#fff">
                <use xlink:href="#a"/>
            </mask>
            <use fill="#000" filter="url(#b)" xlink:href="#a"/>
            <use fill="#333" xlink:href="#a"/>
            <path fill="#242424" d="M151.338 0L93 128h141V0z" mask="url(#c)"/>
        </g>
        <text fill="#FFF" font-family="AvenirNext-Regular, Avenir Next" font-size="12" letter-spacing="4">
            <tspan x="118.806" y="32">MOVIE</tspan> <tspan x="105.2" y="48">VOUCHER</tspan>
        </text>
        <g fill="#FFF" fill-rule="nonzero">
            <path d="M160.5 82c1.163 0 2.267.225 3.31.675a8.537 8.537 0 0 1 2.707 1.821 8.656 8.656 0 0 1 1.812 2.698A8.237 8.237 0 0 1 169 90.5c0 1.17-.224 2.271-.671 3.306a8.656 8.656 0 0 1-1.812 2.698 8.537 8.537 0 0 1-2.706 1.821A8.278 8.278 0 0 1 160.5 99a8.278 8.278 0 0 1-3.31-.675 8.537 8.537 0 0 1-2.707-1.821 8.656 8.656 0 0 1-1.812-2.698A8.237 8.237 0 0 1 152 90.5c0-1.17.224-2.271.671-3.306a8.656 8.656 0 0 1 1.812-2.698 8.537 8.537 0 0 1 2.706-1.821A8.278 8.278 0 0 1 160.5 82zm0 4.992c-.954 0-1.775.345-2.46 1.034-.686.69-1.03 1.515-1.03 2.474 0 .96.344 1.776 1.03 2.451.685.675 1.506 1.012 2.46 1.012.477 0 .925-.09 1.342-.27.418-.18.783-.427 1.096-.742.313-.315.567-.682.76-1.102.195-.42.291-.87.291-1.349 0-.48-.096-.937-.29-1.372a3.73 3.73 0 0 0-.76-1.124 3.462 3.462 0 0 0-1.097-.742 3.355 3.355 0 0 0-1.342-.27zM134.5 68c1.163 0 2.267.217 3.31.652a8.238 8.238 0 0 1 2.707 1.8 8.656 8.656 0 0 1 1.812 2.697A8.349 8.349 0 0 1 143 76.5c0 1.17-.224 2.271-.671 3.306a8.656 8.656 0 0 1-1.812 2.698 8.537 8.537 0 0 1-2.706 1.821A8.278 8.278 0 0 1 134.5 85a8.278 8.278 0 0 1-3.31-.675 8.537 8.537 0 0 1-2.707-1.821 8.656 8.656 0 0 1-1.812-2.698A8.237 8.237 0 0 1 126 76.5c0-1.2.224-2.316.671-3.35a8.656 8.656 0 0 1 1.812-2.699 8.238 8.238 0 0 1 2.706-1.799A8.524 8.524 0 0 1 134.5 68zm0 4.992c-.954 0-1.775.345-2.46 1.034-.686.69-1.03 1.515-1.03 2.474 0 .96.344 1.776 1.03 2.451.685.675 1.506 1.012 2.46 1.012s1.775-.337 2.46-1.012a3.31 3.31 0 0 0 1.03-2.451c0-.96-.344-1.784-1.03-2.474-.685-.69-1.506-1.034-2.46-1.034zM157.253 68l-14.305 31h-5.028l14.126-31h5.207z"/>
        </g>
    </g>
</svg>
