<svg xmlns="http://www.w3.org/2000/svg" width="32" height="32" viewBox="0 0 32 32">
    <g fill="none" fill-rule="evenodd">
        <path d="M0 0H32V32H0z" opacity=".2"/>
        <path stroke="#FFF" d="M18.663 3.245L3.764 18.82l2.508 2.507c.62-.464 1.358-.696 2.096-.696.896 0 1.792.341 2.475 1.025.684.683 1.025 1.579 1.025 2.475 0 .723-.222 1.445-.667 2.057l3.136 2.566L29.236 13.18l-2.508-2.507c-.62.464-1.358.696-2.096.696-.896 0-1.792-.341-2.475-1.025-.684-.683-1.025-1.579-1.025-2.475 0-.723.222-1.445.667-2.057l-3.136-2.566z"/>
        <path fill="#FFF" d="M20.39 19.182l1.413 1.414-.707.707-1.414-1.414.707-.707zm-2.83-2.828l1.415 1.414-.707.707-1.414-1.414.707-.707zm-2.828-2.829l1.414 1.414-.707.707-1.414-1.414.707-.707zm-2.828-2.828l1.414 1.414-.707.707-1.414-1.414.707-.707z"/>
    </g>
</svg>
