<svg xmlns="http://www.w3.org/2000/svg" width="64" height="64" viewBox="0 0 64 64">
    <g fill="none" fill-rule="evenodd">
        <circle cx="32" cy="32" r="31.5" stroke="#E1E1E1"/>
        <path fill="#4172B8" fill-rule="nonzero" d="M47 32c0-8.284-6.716-15-15-15-8.284 0-15 6.716-15 15 0 7.487 5.485 13.693 12.656 14.818V36.336h-3.808V32h3.808v-3.305c0-3.759 2.24-5.836 5.666-5.836 1.641 0 3.358.293 3.358.293v3.692h-1.892c-1.863 0-2.444 1.156-2.444 2.342V32h4.16l-.665 4.336h-3.495v10.482C41.514 45.693 47 39.487 47 32z"/>
    </g>
</svg>
