<svg xmlns="http://www.w3.org/2000/svg" width="64" height="64" viewBox="0 0 64 64">
    <g fill="none" fill-rule="evenodd">
        <circle cx="32" cy="32" r="31.5" stroke="#E1E1E1"/>
        <path fill="#392324" d="M32.07 18.134c8.874 0 16.069 5.687 16.069 12.703 0 7.016-7.195 12.704-16.07 12.704-1.02 0-2.016-.075-2.982-.22-1.679 1.143-5.444 3.703-6.1 4.146l-.085.057c-.352.234-.89.246-.673-.628.177-.704 1.058-3.994 1.394-5.25C19.05 39.406 16 35.403 16 30.836c0-7.015 7.195-12.702 16.07-12.702zm6.806 8.929c-.44 0-.894.182-.884.534.017.64-.022 6.414-.022 6.842.001.675 1.72.673 1.72-.001v-2.272l.505-.406 2.21 3.013c.444.588 1.85-.475 1.403-1.064l-2.344-3.087s1.591-1.721 2.217-2.344c.367-.364-.767-1.505-1.133-1.142l-.182.182c-.678.676-2.663 2.665-2.663 2.665s.022-1.566-.003-2.433c-.008-.33-.411-.487-.824-.487zm-10.14.002c-.393 0-.777.144-.94.503-.412.908-1.9 5.194-2.395 6.33-.357.822 1.184 1.492 1.541.67l.335-1.172h3.064c-.017.024-.06.168.301 1.122.33.87 1.921.267 1.592-.603-.47-1.242-2.098-5.712-2.395-6.347-.136-.292-.628-.503-1.103-.503zm5.061-.007c-.455 0-.91.258-.907.77l.007 6.15s-.133.934.666.934h.471c.892-.002 2.235-.007 2.89-.007.788 0 .784-1.676-.003-1.676h-.284l-1.94-.007v-.19c.002-.845.007-4.285.005-5.208-.001-.51-.453-.766-.905-.766zm-8.09-.268h-5.094c-.982 0-.98 1.721.001 1.721h1.676s.01 4.659.001 5.73c.003.784 1.743.824 1.74.042l.007-5.607s.562-.124 1.667-.123c1.041.001 1.043-1.763.001-1.763zm3.133 2.145l.932 2.921h-1.943l1.01-2.92z"/>
    </g>
</svg>
