<svg xmlns="http://www.w3.org/2000/svg" width="64" height="64" viewBox="0 0 64 64">
    <g fill="none" fill-rule="evenodd">
        <path stroke="#F16A1A" d="M31.998 8.688c-7.196 6.67-14.69 10.06-22.47 10.207.598 11.058 2.76 19.976 6.505 26.749 3.737 6.76 9.052 11.368 15.95 13.82 6.912-2.935 12.24-7.79 15.984-14.563 3.74-6.766 5.904-15.436 6.505-26.004-7.912-.146-15.407-3.538-22.474-10.209z"/>
        <path fill="#F16A1A" d="M13 20.8c.931 19.276 7.265 31.01 19 35.2 11.735-5.029 18.069-16.762 19-35.2-6.706 0-13.04-2.933-19-8.8-6.074 5.867-12.407 8.8-19 8.8z" opacity=".1"/>
        <path stroke="#F16A1A" d="M25 32.535L29.321 37 39 27"/>
    </g>
</svg>
