<svg xmlns="http://www.w3.org/2000/svg" width="200" height="40" viewBox="0 0 200 40">
    <g fill="#FFBA00" fill-rule="evenodd">
        <path d="M100 30.875L88.244 36.18 89.657 23.361 80.979 13.82 93.608 11.202 100 0 106.392 11.202 119.021 13.82 110.343 23.361 111.756 36.18zM140 30.875L128.244 36.18 129.657 23.361 120.979 13.82 133.608 11.202 140 0 146.392 11.202 159.021 13.82 150.343 23.361 151.756 36.18zM180 30.875L168.244 36.18 169.657 23.361 160.979 13.82 173.608 11.202 180 0 186.392 11.202 199.021 13.82 190.343 23.361 191.756 36.18zM20 30.875L8.244 36.18 9.657 23.361.979 13.82 13.608 11.202 20 0 26.392 11.202 39.021 13.82 30.343 23.361 31.756 36.18zM60 30.875L48.244 36.18 49.657 23.361 40.979 13.82 53.608 11.202 60 0 66.392 11.202 79.021 13.82 70.343 23.361 71.756 36.18z"/>
    </g>
</svg>
