<svg xmlns="http://www.w3.org/2000/svg" width="360" height="200" viewBox="0 0 360 200">
    <g fill="none" fill-rule="evenodd">
        <path fill="#FFF6F0" d="M208.803 21.187c-47.459 0-73.68 22.69-90.12 50.55-16.438 27.859-44.759 33.282-50.515 51.705-5.756 18.424-3.628 45.016 29.093 53.647 32.721 8.63 63.197 12.964 83.424 4.609 20.228-8.356 55.814-9.32 81.09-12.965 25.278-3.645 49.675-39.898 35.935-71.353-13.74-31.454-41.448-76.193-88.907-76.193z"/>
        <g>
            <path fill="#0F3E84" d="M8 58h112v76c0 2.21-1.79 4-4 4H12c-2.21 0-4-1.79-4-4V58z" transform="translate(116 21)"/>
            <path fill="#000" d="M8 58H120V66H8z" opacity=".1" transform="translate(116 21)"/>
            <path fill="#0F3E84" d="M4 38h120c2.21 0 4 1.79 4 4v16H0V42c0-2.21 1.79-4 4-4z" transform="translate(116 21)"/>
            <path stroke="#F16A1A" d="M61.462 38C49.154 35.548 43 27.602 43 14.162 43 .722 49.154-3.152 61.462 2.54c7.082 4.358 9.758 11.358 8.029 20.999C67.761 33.179 65.085 38 61.461 38z" transform="translate(116 21)"/>
            <path stroke="#F16A1A" d="M65 38C71.643 19.25 79.14 8.236 87.492 4.959c12.527-4.917 14.61 10.375 7.305 16.52C89.927 25.576 79.995 31.083 65 38zM62.462 38C57.5 61.765 55.846 79.265 57.5 90.5s3.308 27.068 4.962 47.5" transform="translate(116 21)"/>
            <path stroke="#F16A1A" d="M8 94c23.354 2.403 40.877 3.604 52.569 3.604S92.07 96.403 120 94" transform="translate(116 21)"/>
            <path stroke="#F16A1A" d="M8 97.604C40.667 95.201 60 94 66 94s24 1.201 54 3.604" transform="translate(116 21)"/>
            <path stroke="#F16A1A" d="M65.064 38c-2.602 10.77-3.47 17.437-2.602 20 1.3 3.844-4.962 42.154-4.962 53.757 0 7.735 1.26 16.483 3.782 26.243M65.064 38c3.677 1.76 8.832 7.626 15.464 17.6s9.4 18.774 8.302 26.4M64 38c-6.8 2.16-12.533 5.113-17.2 8.857-7.002 5.616-18.531 9.405-25.8 5.616" transform="translate(116 21)"/>
        </g>
        <g transform="translate(30 20)">
            <path stroke="#FFD66D" stroke-linecap="round" stroke-linejoin="round" d="M15.5 47.706L7 57.139 19.75 62.327 11.25 71.289 24 77.706" transform="rotate(-30 15.5 62.706)"/>
            <path stroke="#045E9E" stroke-linecap="round" stroke-linejoin="round" d="M231.866 2L226.366 7.974 234.616 11.26 229.116 16.936 237.366 21" transform="scale(-1 1) rotate(-30 0 876.836)"/>
            <path stroke="#751AF1" stroke-linecap="round" stroke-linejoin="round" d="M261.366 47c-11.598 0-21 9.402-21 21M49.366 112c0 8.284 6.716 15 15 15"/>
            <circle cx="241.866" cy="112.5" r="9.5" fill="#FFD66D"/>
            <circle cx="66.866" cy="79.5" r="5.5" fill="#F16A1A"/>
            <path stroke="#F16A1A" stroke-linecap="round" stroke-linejoin="round" d="M50.999 22L67.999 5"/>
        </g>
    </g>
</svg>
