<svg xmlns="http://www.w3.org/2000/svg" width="64" height="64" viewBox="0 0 64 64">
    <g fill="none" fill-rule="evenodd">
        <path d="M0 0h64v64H0z" opacity=".2"/>
        <path fill="#999" d="M32 47.59l-16.044 8.003a1 1 0 0 1-1.436-1.043l2.653-17.733L4.604 24.031a1 1 0 0 1 .548-1.687l17.685-2.956 8.276-15.905a1 1 0 0 1 1.774 0l8.276 15.905 17.685 2.956a1 1 0 0 1 .548 1.687l-12.57 12.786L49.48 54.55a1 1 0 0 1-1.436 1.043L32 47.59z"/>
        <path fill="#888" d="M40.57 18.248l.593 1.14 17.685 2.956a1 1 0 0 1 .548 1.687l-12.57 12.786L49.48 54.55a1 1 0 0 1-1.436 1.043L32 47.59l-16.044 8.003a.998.998 0 0 1-.332.098L40.57 18.248z"/>
        <path stroke="#FFF" stroke-linecap="round" stroke-linejoin="round" stroke-width="2" d="M26 27l12 12M38 27L26 39"/>
    </g>
</svg>
