<svg xmlns="http://www.w3.org/2000/svg" width="32" height="32" viewBox="0 0 32 32">
    <g fill="none" fill-rule="evenodd">
        <path d="M0 0h32v32H0z" opacity=".2"/>
        <path fill="#999" d="M23 5a2 2 0 0 1 2 2v13a2 2 0 0 1-2 2H5a2 2 0 0 1-2-2V7a2 2 0 0 1 2-2h18zm-11.284 5.619a.5.5 0 0 0-.069.252v5.258a.5.5 0 0 0 .752.432l4.508-2.63a.5.5 0 0 0 0-.863l-4.508-2.63a.5.5 0 0 0-.683.18zM30.5 8.392a.5.5 0 0 1 .5.5v9.192a.5.5 0 0 1-.77.42l-4.231-2.721v-4.727l4.24-2.591a.5.5 0 0 1 .17-.065z"/>
        <path fill="#979797" fill-rule="nonzero" d="M12.36 23l-2.227 6H8l2.227-6h2.133zm5.958 0l2.228 6h-2.134l-2.227-6h2.133zm-6.305-1.937a1 1 0 0 1 .652.938L10.598 22l.13-.348a1 1 0 0 1 1.285-.59zm5.805.59l.129.347h-2.066a1 1 0 0 1 1.937-.348z"/>
    </g>
</svg>
