<svg xmlns="http://www.w3.org/2000/svg" width="72" height="72" viewBox="0 0 72 72">
    <g fill="none" fill-rule="evenodd">
        <path d="M0 0h72v72H0z" opacity=".2"/>
        <path fill="#999" d="M57.272 19.657v40.525a2 2 0 0 1-2 2H16.728c-.547 0-1.042-.22-1.403-.575l4.312-4.315v1.617h6.546v-6.545h-1.617l22.91-22.91h4.889v-4.888l4.908-4.909zm-4.908 32.707h-6.546v6.545h6.546v-6.545zm2.909-42.546a2 2 0 0 1 2 2v3.211l-7.88 7.88h-3.575v3.575L26.18 46.12v-3.574h-6.545v6.546h3.574l-3.273 3.272h-.3v.301l-4.91 4.91V11.817a2 2 0 0 1 2-2h38.546zm-2.91 32.727h-6.545v6.546h6.546v-6.546zm-26.181-9.818h-6.546v6.546h6.546v-6.546zm26.182 0h-6.546v6.546h6.546v-6.546zM26.182 22.91h-6.546v6.546h6.546v-6.546zm0-9.818h-6.546v6.545h6.546v-6.545zm26.182 0h-6.546v6.545h6.546v-6.545z"/>
        <path fill="#666" d="M57.272 36v24.182a2 2 0 0 1-2 2H16.728c-.547 0-1.042-.22-1.403-.575l4.312-4.315v1.617h6.546v-6.545h-1.617L40.93 36h4.888l.001 3.273h6.546V36h4.908zm-4.908 16.364h-6.546v6.545h6.546v-6.545zM36.3 36l-10.12 10.12v-3.575h-6.545v6.546h3.574l-3.273 3.272h-.3v.301l-4.91 4.91V36h4.91v3.273h6.545V36h10.12zm16.063 6.545h-6.546v6.546h6.546v-6.546z"/>
        <path fill="#999" fill-rule="nonzero" d="M66.094 2.116L1.297 66.912a1.636 1.636 0 1 0 2.315 2.315L68.408 4.43a1.636 1.636 0 1 0-2.314-2.314z"/>
        <path fill="#666" fill-rule="nonzero" d="M36.838 36L3.612 69.227a1.636 1.636 0 1 1-2.315-2.315L32.21 36h4.63z"/>
    </g>
</svg>
