<svg xmlns="http://www.w3.org/2000/svg" width="184" height="120" viewBox="0 0 184 120">
    <defs>
        <linearGradient id="a" x1="50%" x2="50%" y1="0%" y2="100%">
            <stop offset="0%" stop-color="#FFD6A0"/>
            <stop offset="100%" stop-color="#F86544"/>
        </linearGradient>
    </defs>
    <g fill="none" fill-rule="evenodd">
        <path d="M0 0h184v120H0z" opacity=".2"/>
        <path fill="#193284" d="M100.126 16.443L160 51.013v7.569l-11.563 6.675L160 71.93v7.57l-65.913 38.057c-3.333 1.924-8.741 1.924-12.078 0L3.499 72.23c-3.332-1.925-3.332-5.049 0-6.973l84.549-48.814c3.337-1.924 8.744-1.924 12.078 0zm-12.078 83.68l-12.078 6.974 12.078 6.973 12.078-6.973-12.078-6.974zm18.117-10.46l-12.078 6.974 12.078 6.973 12.077-6.973-12.077-6.974zm18.12-10.46l-12.078 6.974 12.078 6.973 12.074-6.973-12.074-6.974zm18.116-10.46l-12.077 6.974L142.4 82.69l12.078-6.973-12.078-6.974zM21.621 61.77L9.538 68.743l12.081 6.974 12.078-6.974L21.62 61.77zm70.705-2.155a2.94 2.94 0 0 0-1.14.342l-15.334 8.856c-.834.481-.834 1.262 0 1.743.31.178.707.297 1.136.342l18.626 1.897c1.161.118 2.266-.331 2.472-.997a.693.693 0 0 0 0-.43l-3.284-10.752c-.206-.67-1.315-1.12-2.476-1zm-52.59-8.305L27.66 58.283l12.078 6.974 12.078-6.974-12.078-6.973zm18.117-10.46l-12.077 6.973 12.077 6.974 12.078-6.974-12.078-6.973zM75.97 30.39l-12.078 6.973 12.078 6.974 12.078-6.974L75.97 30.39zm18.117-10.46l-12.078 6.973 12.078 6.974 12.078-6.974-12.078-6.973z"/>
        <path fill="url(#a)" d="M172.596 51.257l-12.078-6.974-12.081 6.974 12.081 6.973 12.078-6.973zm-66.431-38.354L94.087 5.93l-12.078 6.973 12.078 6.974 12.078-6.974zm48.314 48.814l-12.078-6.974-12.077 6.974L142.4 68.69l12.078-6.973zM88.048 23.363L75.97 16.39l-12.078 6.973 12.078 6.974 12.078-6.974zm48.311 48.814l-12.074-6.974-12.078 6.974 12.078 6.973 12.074-6.973zM69.931 33.823L57.853 26.85l-12.077 6.973 12.077 6.974 12.078-6.974zm22.395 11.792a2.94 2.94 0 0 0-1.14.342l-15.334 8.856c-.834.481-.834 1.262 0 1.743.31.178.707.297 1.136.342l18.626 1.897c1.161.118 2.266-.331 2.472-.997a.693.693 0 0 0 0-.43l-3.284-10.752c-.206-.67-1.315-1.12-2.476-1zm25.916 37.022l-12.077-6.974-12.078 6.974 12.078 6.973 12.077-6.973zM51.815 44.283L39.737 37.31l-12.078 6.973 12.078 6.974 12.078-6.974zm48.31 48.814l-12.077-6.974-12.078 6.974 12.078 6.973 12.078-6.973zM33.699 54.743L21.62 47.77 9.54 54.743l12.081 6.974 12.078-6.974zM178.63 47.77c3.337 1.925 3.337 5.049 0 6.973l-84.544 48.814c-3.333 1.924-8.741 1.924-12.078 0L3.499 58.23c-3.332-1.925-3.332-5.049 0-6.973L88.049 2.443c3.337-1.924 8.744-1.924 12.078 0L178.63 47.77z"/>
        <path fill="#C54433" d="M106.978 66.39c-10.06 5.809-26.372 5.809-36.432 0-10.062-5.807-10.062-15.225 0-21.033 10.06-5.808 26.372-5.808 36.43 0 10.06 5.808 10.06 15.226.002 21.034"/>
        <path fill="#D9D9D9" d="M114.523 45.873h-.724c-1.074-2.57-3.346-5.008-6.822-7.014-10.06-5.81-26.37-5.81-36.432 0-3.474 2.006-5.72 4.444-6.794 7.014H63v3.502c0 3.806 2.514 7.614 7.544 10.518 10.062 5.808 26.372 5.808 36.434 0 4.522-2.614 7.012-5.956 7.468-9.372.05-.38.046-.764.046-1.146h.03v-3.502z"/>
        <path fill="#FFF" d="M106.978 56.39c-10.06 5.809-26.372 5.809-36.432 0-10.062-5.807-10.062-15.225 0-21.033 10.06-5.808 26.372-5.808 36.43 0 10.06 5.808 10.06 15.226.002 21.034"/>
        <path fill="#F36653" d="M92.535 38.062c-.376.04-.724.148-.996.312l-13.397 8.038c-.728.438-.728 1.147 0 1.582.27.163.618.271.995.311l16.269 1.723c1.015.108 1.982-.298 2.161-.908a.67.67 0 0 0 0-.388l-2.87-9.761c-.18-.61-1.149-1.015-2.162-.909"/>
    </g>
</svg>
